<svg xmlns="http://www.w3.org/2000/svg" viewBox="0 0 128 128"><path fill="#fff" d="M69.38 70.45l8.27 2.77c-.62 1.82-1.45 3.35-2.47 4.6-1.01 1.24-2.15 2.25-3.42 3.01-1.25.76-2.55 1.32-3.9 1.65-1.33.35-2.64.51-3.91.51-1.4 0-2.79-.16-4.15-.49a15.7 15.7 0 0 1-3.83-1.52c-1.19-.67-2.25-1.51-3.17-2.53-.91-1-1.63-2.19-2.14-3.54-.53-1.36-.8-2.88-.81-4.59V59.03c.01-1.71.28-3.23.81-4.6.51-1.36 1.23-2.54 2.14-3.56.92-1.03 1.98-1.87 3.17-2.55 1.2-.68 2.48-1.19 3.83-1.53 1.36-.33 2.75-.5 4.15-.5 1.27-.02 2.58.14 3.94.48 1.35.32 2.65.87 3.9 1.61 1.25.75 2.36 1.74 3.3 2.99.96 1.24 1.68 2.79 2.15 4.61l-8.07 2.56c-.27-.88-.7-1.6-1.27-2.15-.58-.55-1.24-.94-1.98-1.17-.75-.23-1.51-.32-2.28-.27-.78.07-1.48.26-2.15.59-.66.33-1.19.79-1.59 1.35-.41.58-.61 1.27-.63 2.07v11.29c.02.82.22 1.53.62 2.12.39.6.92 1.06 1.57 1.41.65.35 1.35.54 2.13.6.77.06 1.54-.05 2.3-.3.75-.26 1.44-.68 2.05-1.28.62-.59 1.1-1.38 1.44-2.35"/><mask id="a"><rect fill="#fff" width="100%" height="100%"/><path d="M23.73 95.69v-.13h.8v-.13h.94v-.14h1.06v-.13h.94v-.13h1.06v-.14h1.07v-.13h.93v-.13h1.07v-.14h.93v-.13h1.07v-.13h1.2v-.14h1.33v-.13h1.2v-.13h1.34v-.14h1.2v-.13h1.33v-.13h1.2v-.14h1.33v-.13h1.34v-.13h2v-.14h1.86v-.13h1.87v-.13h1.87v-.14h2v-.13h3.73v-.13h4.4v-.14h8.4v.14h5.47v.13h2.13v.13h2.13v.14h2.14v.13h2.13v.13h1.47v.14h1.06v.13h1.2v.13h1.2v.14h1.07v.13h1.2v.13h1.2v.14h1.2v.13h1.07v.13h.93v.14h.8v.13h.8v.13h.8v.14h.93v.13h.8v.13h.8v.14h.8v.13h.8v.13h.8v.14h.67v.13h.67v.13h.8v-1.06h-.14v-2.14H106v-2.13h-.13v-2.13h-.14v-2.14h-.13v-2.13h-.13v-2.13h-.14v-2.14h-.13v-1.6h-.13v-.13h-.27v-.13h-.27v-.14h-.26v-.13h-.14v-.13h-.26v-.14h-.14v-.13h-.26v-.13h-.14v-.14h-.13v-.13h-.27v-.13h-.13v-.14h-.13v-.13h-.14v-.13h-.26v-.14h-.14v-.13H102v-.13h-.13v-.14h-.14v-.13h-.13v-.13h-.13v-.14h-.14v-.13h-.13v-.13h-.13v-.14h-.14v-.13h-.13v-.13h-.13v-.14h-.14v-.26h-.13v-.14h-.13v-.26h-.14v-.14H100v-.13h-.13v-.27h-.14v-.13h-.13v-.27h-.13v-.13h-.14v-.27h-.13v-.26h-.13v-.27h-.14v-.27h-.13v-.26h-.13v-.27h-.14v-.27h-.13v-.26h-.13v-.4h-.14v-.4H98v-.4h-.13v-.27h-.14v-.67h-.13v-.66h-.13v-.54h-.14v-1.33h-.13v-1.87h.13v-1.33h.14v-.53h.13v-.67h.13v-.53h.14v-.54H98v-.26h.13v-.4h.14v-.27h.13v-.4h.13v-.27h.14v-.4h.13v-.13h.13v-.27h.14v-.26h.13v-.27h.13v-.13h.14v-.27h.13v-.27h.13v-.13h.14v-.27h.13v-.13h.13v-.13h.14v-.14h.13v-.26h.13v-.14h.14v-.13h.13v-.27h.13v-.13h.14v-.13h.13v-.14h.13v-.13h.14v-.13h.13v-.14h.13v-.13h.14v-.13h.13v-.14h.13v-.13h.14v-.13h.26v-.14h.14v-.13h.13v-.13h.13v-.14h.27v-.13h.13v-.13h.27v-.14h.13v-.13h.27v-.13h.13v-.14h.14v-.13h.26v-.13h.27v-.14h.27v-.13h.26v-.13h.27v-.14h.27v-.13h.26v-.13h.14v-2.4h.13v-3.34h.13v-3.33h.14v-3.33h.13v-3.34h.13v-2.66h-.53v.13h-.53v.13h-.4v.14h-.54v.13h-.4v.13H104v.14h-.4v.13h-.53v.13h-.4v.14h-.54v.13h-.53v.13h-.4v.14h-.53v.13h-.54v.13h-.53v.14h-.67v.13h-.53v.13h-.53v.14h-.54v.13h-.53v.13h-.53v.14h-.54v.13h-.66v.13h-.67v.14h-.53v.13h-.67v.13h-.67v.14h-.66v.13h-.67v.13h-.53v.14h-.8v.13h-.8v.13h-.8v.14h-.8v.13h-.8v.13h-.8v.14h-.8v.13h-.94v.13h-1.06v.14H82v.13h-.93v.13H80v.14h-1.33v.13H77.2v.13h-1.6v.14H74v.13h-2.67v.13h-3.6v.14h-5.46v-.14h-4.14v-.13H56v-.13h-2v-.14h-1.47v-.13H51.2v-.13h-1.33v-.14h-1.34v-.13h-1.06v-.13h-.94v-.14h-.93v-.13h-.93v-.13h-.94v-.14h-.93v-.13H42v-.13h-.8v-.14h-.67v-.13h-.8v-.13h-.8v-.14h-.8v-.13h-.66v-.13h-.67v-.14h-.53v-.13h-.67v-.13h-.67v-.14h-.66v-.13h-.67v-.13h-.53v-.14h-.67v-.13h-.53v-.13h-.54v-.14h-.53v-.13h-.53v-.13h-.54v-.14h-.66v-.13h-.54v-.13H28v-.14h-.53v-.13h-.54v-.13h-.4v-.14H26v-.13h-.53v-.13h-.54v-.14h-.4v-.13H24v-.13h-.53v-.14h-.4v-.13h-.54v-.13H22v3.33h.13v3.33h.14v3.34h.13v3.33h.13v3.33h.14v1.74h.13v.13h.27v.13h.26v.14h.27v.13h.27v.13h.26v.14h.27v.13h.13v.13h.27v.14h.13v.13h.27v.13h.13v.14h.27v.13h.13v.13h.14v.14h.26v.13h.14v.13h.13v.14h.13v.13h.14v.13h.13v.14h.13v.13h.27v.13h.13v.14h.14v.13h.13v.13h.13v.14h.14v.13H28v.27h.13v.13h.14v.13h.13v.14h.13v.26h.14v.14h.13v.13h.13v.27h.14v.13h.13v.13h.13v.27h.14v.27h.13v.26h.13v.14h.14v.26H30v.27h.13v.27h.14v.26h.13v.4h.13v.27h.14v.4h.13v.27h.13v.4h.14v.53h.13v.53h.13v.54h.14v.66h.13v1.34h.13v1.6h-.13v1.33h-.13v.67h-.14v.53h-.13v.67h-.13v.4h-.14v.4h-.13v.26h-.13v.4h-.14v.4h-.13v.27h-.13v.27h-.14v.26H30v.27h-.13v.27h-.14v.26h-.13v.27h-.13v.13h-.14v.27h-.13v.13h-.13v.14h-.14v.26h-.13v.14h-.13v.26h-.14v.14h-.13v.13h-.13v.13h-.14v.14H28v.13h-.13v.27h-.14v.13h-.13v.13h-.13v.14h-.14v.13h-.13v.13h-.13v.14h-.14v.13h-.13v.13h-.27v.14h-.13v.13h-.13v.13h-.14v.14h-.26v.13h-.14v.13h-.13v.14h-.13v.13h-.27v.13h-.13v.14h-.27v.13h-.27v.13h-.13v.14h-.27v.13h-.26v.13h-.14v1.07h-.13v2.13h-.13v2.14h-.14v2.26h-.13v2.14h-.13v2.13h-.14v2.13h-.13v2.14h-.13v1.46"/></mask><circle mask="url(#a)" cx="64" cy="64" r="64" fill="#fff"/></svg>