<svg viewBox="0 0 2039 121" xmlns="http://www.w3.org/2000/svg" fill-rule="evenodd" clip-rule="evenodd" stroke-linejoin="round" stroke-miterlimit="2"><path d="M.01 119.461V27.034h10.298v8.753c2.446-3.475 5.15-5.921 8.24-7.595 3.089-1.802 6.822-2.574 11.07-2.574 5.793 0 10.813 1.416 15.19 4.376 4.248 2.961 7.595 7.08 9.783 12.358 2.189 5.407 3.347 11.2 3.347 17.636 0 6.823-1.158 13.002-3.604 18.409-2.446 5.535-6.05 9.654-10.685 12.615-4.763 2.832-9.654 4.377-14.804 4.377-3.733 0-7.208-.773-10.17-2.446-2.96-1.545-5.406-3.605-7.337-6.05v32.568H.01zM10.308 60.89c0 8.496 1.674 14.933 5.15 19.052 3.475 4.12 7.723 6.05 12.615 6.05 5.02 0 9.397-2.06 13.002-6.307 3.475-4.248 5.278-10.813 5.278-19.824 0-8.497-1.674-14.804-5.278-19.052C37.599 36.56 33.48 34.5 28.588 34.5c-4.763 0-9.011 2.188-12.744 6.694-3.733 4.505-5.536 11.07-5.536 19.695zm61.166 32.954v-66.81h10.17v10.17c2.575-4.764 5.02-7.853 7.209-9.398 2.188-1.416 4.634-2.188 7.209-2.188 3.861 0 7.723 1.158 11.714 3.604l-3.99 10.556c-2.704-1.674-5.536-2.446-8.24-2.446-2.445 0-4.762.644-6.693 2.188-1.931 1.416-3.347 3.476-4.248 6.18-1.159 3.99-1.802 8.367-1.802 13.258v34.886H71.474zm38.749-33.341c0-12.358 3.476-21.498 10.298-27.548 5.793-4.892 12.744-7.337 20.983-7.337 9.268 0 16.735 2.96 22.528 9.01 5.792 6.05 8.753 14.29 8.753 24.845 0 8.625-1.287 15.448-3.862 20.34-2.574 4.891-6.307 8.753-11.2 11.456-5.02 2.704-10.297 4.12-16.219 4.12-9.268 0-16.863-3.09-22.656-9.011-5.664-6.05-8.625-14.675-8.625-25.875zm11.714 0c0 8.496 1.802 14.933 5.536 19.18 3.733 4.249 8.367 6.309 14.031 6.309s10.298-2.06 14.031-6.308c3.734-4.377 5.665-10.813 5.665-19.567 0-8.239-1.931-14.546-5.665-18.794-3.733-4.248-8.367-6.437-14.031-6.437s-10.298 2.189-14.031 6.437c-3.734 4.248-5.536 10.555-5.536 19.18zm62.067 38.877l10.942 1.673c.515 3.347 1.802 5.793 3.862 7.337 2.832 2.189 6.694 3.219 11.457 3.219 5.278 0 9.268-1.03 12.23-3.219 2.831-2.06 4.762-5.02 5.792-8.753.515-2.317.772-7.209.772-14.547-5.02 5.793-11.07 8.754-18.537 8.754-9.14 0-16.22-3.347-21.24-9.912-5.02-6.694-7.595-14.547-7.595-23.815 0-6.436 1.159-12.23 3.476-17.636 2.317-5.406 5.664-9.526 10.04-12.487 4.377-2.96 9.527-4.376 15.448-4.376 7.853 0 14.29 3.09 19.438 9.526v-8.11h10.427v57.799c0 10.298-1.03 17.765-3.09 22.013-2.188 4.376-5.535 7.852-10.169 10.298-4.505 2.575-10.17 3.733-16.863 3.733-7.982 0-14.418-1.673-19.31-5.278-4.891-3.604-7.208-9.01-7.08-16.22zm9.397-40.164c0 8.753 1.674 15.19 5.15 19.18 3.475 4.12 7.852 6.05 13.13 6.05 5.15 0 9.526-1.93 13.002-5.92 3.604-3.991 5.277-10.3 5.277-18.924 0-8.11-1.802-14.289-5.406-18.408-3.605-4.12-7.981-6.308-13.13-6.308-5.02 0-9.269 2.06-12.745 6.18-3.604 4.118-5.278 10.169-5.278 18.15zm64.127 34.628v-66.81h10.17v10.17c2.574-4.764 5.02-7.853 7.208-9.398 2.189-1.416 4.635-2.188 7.21-2.188 3.861 0 7.723 1.158 11.714 3.604l-3.991 10.556c-2.703-1.674-5.535-2.446-8.239-2.446-2.446 0-4.763.644-6.694 2.188-1.93 1.416-3.347 3.476-4.248 6.18-1.158 3.99-1.802 8.367-1.802 13.258v34.886h-11.328zm86.506-8.239c-4.12 3.605-8.239 6.05-12.1 7.595-3.863 1.416-7.982 2.189-12.487 2.189-7.338 0-12.873-1.802-16.864-5.407-3.99-3.604-5.921-8.11-5.921-13.774 0-3.218.772-6.179 2.188-8.882 1.545-2.703 3.476-4.892 5.921-6.565 2.446-1.674 5.15-2.832 8.11-3.733 2.189-.515 5.536-1.16 10.041-1.674 9.14-1.03 15.834-2.317 20.21-3.862v-2.96c0-4.635-1.03-7.853-3.089-9.784-2.96-2.575-7.209-3.862-13.001-3.862-5.278 0-9.14 1.03-11.715 2.832-2.574 1.931-4.377 5.15-5.664 9.912l-11.07-1.544c1.03-4.635 2.703-8.497 5.02-11.457 2.317-2.832 5.664-5.15 9.912-6.694 4.377-1.545 9.526-2.317 15.19-2.317s10.298.643 13.903 1.93c3.604 1.417 6.179 3.09 7.852 5.15 1.674 1.93 2.832 4.505 3.476 7.595.386 1.93.644 5.406.644 10.556v15.06c0 10.428.257 17.122.643 19.954.515 2.703 1.545 5.406 2.961 7.981h-11.843c-1.159-2.317-1.931-5.15-2.317-8.239zm-.901-25.23c-4.12 1.673-10.299 3.089-18.537 4.248-4.635.643-7.853 1.416-9.784 2.317-1.93.772-3.475 2.06-4.505 3.604-1.03 1.674-1.545 3.476-1.545 5.407 0 2.96 1.159 5.535 3.347 7.466 2.317 2.06 5.664 3.09 10.04 3.09 4.378 0 8.24-1.03 11.715-2.833 3.347-1.93 5.793-4.505 7.466-7.852 1.159-2.575 1.803-6.308 1.803-11.328v-4.12zm28.985 33.469v-66.81h10.17v9.397c2.06-3.218 4.763-5.922 8.239-7.853 3.475-2.06 7.466-2.96 11.971-2.96 4.892 0 9.011 1.03 12.101 3.09 3.218 2.059 5.407 4.89 6.694 8.624 5.278-7.852 12.23-11.714 20.597-11.714 6.693 0 11.714 1.802 15.318 5.406 3.605 3.733 5.407 9.397 5.407 16.992v45.828h-11.328V51.75c0-4.506-.386-7.724-1.03-9.784-.772-1.93-2.06-3.604-3.99-4.763-1.932-1.158-4.249-1.802-6.823-1.802-4.763 0-8.625 1.545-11.715 4.634-3.09 3.219-4.634 8.11-4.634 15.062v38.747h-11.328V50.462c0-5.02-.901-8.753-2.703-11.328-1.931-2.446-4.892-3.733-9.14-3.733-3.218 0-6.05.772-8.754 2.446-2.703 1.673-4.763 4.12-5.921 7.466-1.159 3.218-1.802 7.853-1.802 13.903v34.628h-11.329zm107.232 0v-66.81h10.17v9.397c2.06-3.218 4.762-5.922 8.238-7.853 3.476-2.06 7.466-2.96 11.972-2.96 4.892 0 9.01 1.03 12.1 3.09 3.219 2.059 5.407 4.89 6.694 8.624 5.278-7.852 12.23-11.714 20.597-11.714 6.694 0 11.714 1.802 15.319 5.406 3.604 3.733 5.406 9.397 5.406 16.992v45.828h-11.328V51.75c0-4.506-.386-7.724-1.03-9.784-.772-1.93-2.06-3.604-3.99-4.763-1.931-1.158-4.248-1.802-6.823-1.802-4.763 0-8.625 1.545-11.714 4.634-3.09 3.219-4.634 8.11-4.634 15.062v38.747h-11.329V50.462c0-5.02-.9-8.753-2.703-11.328-1.93-2.446-4.892-3.733-9.14-3.733-3.218 0-6.05.772-8.753 2.446-2.704 1.673-4.763 4.12-5.922 7.466-1.158 3.218-1.802 7.853-1.802 13.903v34.628H479.35zm107.231-79.168V1.674h11.328v13.002h-11.328zm0 79.168v-66.81h11.328v66.81h-11.328zm28.599 0v-66.81h10.17v9.526c4.892-7.338 11.972-10.942 21.24-10.942 3.99 0 7.724.643 11.07 2.188 3.348 1.416 5.922 3.347 7.596 5.664 1.673 2.317 2.832 5.15 3.475 8.367.515 2.06.644 5.665.644 10.942v41.065h-11.328v-40.55c0-4.634-.386-8.11-1.287-10.427-.901-2.188-2.446-4.119-4.635-5.406-2.317-1.416-4.891-2.06-7.852-2.06-4.892 0-9.011 1.545-12.487 4.634-3.604 2.961-5.278 8.754-5.278 17.379v36.43H615.18zm69.536 5.536l10.942 1.673c.514 3.347 1.802 5.793 3.861 7.337 2.832 2.189 6.694 3.219 11.457 3.219 5.278 0 9.269-1.03 12.23-3.219 2.832-2.06 4.763-5.02 5.792-8.753.515-2.317.773-7.209.773-14.547-5.02 5.793-11.071 8.754-18.537 8.754-9.14 0-16.22-3.347-21.24-9.912-5.021-6.694-7.596-14.547-7.596-23.815 0-6.436 1.159-12.23 3.476-17.636 2.317-5.406 5.664-9.526 10.041-12.487 4.377-2.96 9.526-4.376 15.447-4.376 7.853 0 14.29 3.09 19.439 9.526v-8.11h10.427v57.799c0 10.298-1.03 17.765-3.09 22.013-2.188 4.376-5.535 7.852-10.17 10.298-4.505 2.575-10.17 3.733-16.863 3.733-7.981 0-14.418-1.673-19.31-5.278-4.891-3.604-7.208-9.01-7.08-16.22zm9.397-40.164c0 8.753 1.673 15.19 5.149 19.18 3.476 4.12 7.852 6.05 13.13 6.05 5.15 0 9.526-1.93 13.002-5.92 3.604-3.991 5.278-10.3 5.278-18.924 0-8.11-1.802-14.289-5.407-18.408-3.604-4.12-7.981-6.308-13.13-6.308-5.02 0-9.269 2.06-12.744 6.18-3.605 4.118-5.278 10.169-5.278 18.15zm67.473 21.755h12.873v12.873h-12.873zm76.056-11.586l11.2 1.417c-1.288 7.723-4.377 13.645-9.398 18.022-5.02 4.376-11.07 6.565-18.408 6.565-9.14 0-16.477-2.961-22.013-9.011-5.535-5.922-8.367-14.547-8.367-25.617 0-7.21 1.158-13.517 3.604-18.924 2.317-5.406 6.05-9.525 10.942-12.229 4.892-2.703 10.17-3.99 15.834-3.99 7.337 0 13.259 1.802 17.893 5.406 4.506 3.733 7.466 8.883 8.754 15.705l-10.942 1.674c-1.03-4.506-2.961-7.853-5.536-10.17-2.703-2.188-5.921-3.347-9.654-3.347-5.664 0-10.299 2.06-13.903 6.18-3.604 3.99-5.407 10.555-5.407 19.308 0 9.011 1.803 15.577 5.15 19.567 3.475 4.12 7.98 6.05 13.516 6.05 4.377 0 8.11-1.287 11.07-3.99 2.962-2.703 4.893-6.951 5.665-12.616zm20.854-54.709V1.674h11.328v13.002h-11.328zm0 79.168v-66.81h11.328v66.81h-11.328zm28.47 0v-66.81h10.17v10.17c2.575-4.764 5.02-7.853 7.209-9.398 2.188-1.416 4.634-2.188 7.209-2.188 3.862 0 7.723 1.158 11.714 3.604l-3.99 10.556c-2.704-1.674-5.536-2.446-8.24-2.446-2.445 0-4.762.644-6.693 2.188-1.931 1.416-3.347 3.476-4.248 6.18-1.159 3.99-1.802 8.367-1.802 13.258v34.886h-11.329zm86.509-24.459l11.199 1.417c-1.287 7.723-4.377 13.645-9.397 18.022-5.02 4.376-11.07 6.565-18.408 6.565-9.14 0-16.478-2.961-22.013-9.011-5.535-5.922-8.368-14.547-8.368-25.617 0-7.21 1.159-13.517 3.605-18.924 2.317-5.406 6.05-9.525 10.942-12.229 4.892-2.703 10.17-3.99 15.834-3.99 7.337 0 13.259 1.802 17.893 5.406 4.505 3.733 7.466 8.883 8.753 15.705l-10.942 1.674c-1.03-4.506-2.96-7.853-5.535-10.17-2.703-2.188-5.921-3.347-9.655-3.347-5.664 0-10.298 2.06-13.902 6.18-3.605 3.99-5.407 10.555-5.407 19.308 0 9.011 1.802 15.577 5.15 19.567 3.475 4.12 7.98 6.05 13.516 6.05 4.377 0 8.11-1.287 11.07-3.99 2.961-2.703 4.892-6.951 5.665-12.616zm20.596-67.711h11.329v92.17h-11.33zm74.556 70.672l11.714 1.416c-1.93 6.823-5.278 12.1-10.298 15.963-5.02 3.733-11.328 5.664-19.052 5.664-9.784 0-17.507-3.09-23.3-9.011-5.664-6.05-8.496-14.547-8.496-25.36 0-11.2 2.832-19.953 8.625-26.132 5.792-6.179 13.259-9.268 22.527-9.268 8.882 0 16.22 2.96 21.884 9.14 5.664 6.05 8.496 14.546 8.496 25.616 0 .644-.129 1.674-.129 2.961h-49.818c.515 7.338 2.575 13.002 6.308 16.864 3.733 3.862 8.367 5.793 13.903 5.793 4.12 0 7.724-1.03 10.684-3.219 2.832-2.188 5.278-5.664 6.952-10.427zm-37.203-18.28h37.331c-.515-5.663-1.93-9.783-4.248-12.615-3.604-4.376-8.367-6.565-14.031-6.565-5.278 0-9.655 1.802-13.13 5.278-3.605 3.476-5.536 8.11-5.922 13.903zm66.315 26.905h12.873v12.873h-12.873zm30.488 18.409l10.942 1.673c.515 3.347 1.802 5.793 3.862 7.337 2.832 2.189 6.693 3.219 11.456 3.219 5.278 0 9.269-1.03 12.23-3.219 2.832-2.06 4.763-5.02 5.792-8.753.515-2.317.773-7.209.773-14.547-5.02 5.793-11.07 8.754-18.537 8.754-9.14 0-16.22-3.347-21.24-9.912-5.02-6.694-7.595-14.547-7.595-23.815 0-6.436 1.158-12.23 3.475-17.636 2.317-5.406 5.664-9.526 10.041-12.487 4.377-2.96 9.526-4.376 15.448-4.376 7.852 0 14.289 3.09 19.438 9.526v-8.11h10.427v57.799c0 10.298-1.03 17.765-3.09 22.013-2.188 4.376-5.535 7.852-10.17 10.298-4.505 2.575-10.169 3.733-16.863 3.733-7.981 0-14.418-1.673-19.31-5.278-4.89-3.604-7.208-9.01-7.08-16.22zm9.397-40.164c0 8.753 1.673 15.19 5.15 19.18 3.475 4.12 7.852 6.05 13.13 6.05 5.149 0 9.525-1.93 13.001-5.92 3.604-3.991 5.278-10.3 5.278-18.924 0-8.11-1.802-14.289-5.407-18.408-3.604-4.12-7.98-6.308-13.13-6.308-5.02 0-9.269 2.06-12.744 6.18-3.605 4.118-5.278 10.169-5.278 18.15zm64.256-44.54V1.674h11.327v13.002h-11.328zm0 79.168v-66.81h11.327v66.81h-11.328zm31.301 0V35.916h-10.04v-8.882h10.04v-7.08c0-4.506.387-7.724 1.159-9.913 1.159-2.96 3.09-5.406 5.793-7.208 2.703-1.803 6.565-2.704 11.457-2.704 3.218 0 6.822.386 10.684 1.159l-1.802 9.783c-2.317-.386-4.506-.515-6.565-.515-3.476 0-5.922.644-7.338 2.189-1.416 1.416-2.188 4.12-2.188 8.238v6.05h13.001v8.883h-13.001v57.928h-11.2zm76.831 0v-9.783c-5.278 7.466-12.23 11.328-21.24 11.328-3.862 0-7.596-.773-10.943-2.317-3.475-1.545-6.05-3.347-7.723-5.664-1.545-2.318-2.704-5.15-3.476-8.368-.386-2.188-.644-5.793-.644-10.556v-41.45h11.329v37.074c0 5.921.257 9.912.643 11.971.773 2.961 2.189 5.278 4.506 6.952 2.317 1.673 5.149 2.574 8.625 2.574 3.346 0 6.565-.9 9.525-2.574 2.961-1.802 5.02-4.12 6.308-7.08 1.287-3.09 1.802-7.338 1.802-13.13V27.033h11.329v66.81h-10.041zm92.318-10.298c-2.703 3.218-5.793 5.664-9.14 7.595-3.347 1.93-6.823 2.832-10.17 2.832-3.733 0-7.337-1.03-10.813-3.218-3.604-2.189-6.436-5.536-8.625-10.041-2.188-4.506-3.347-9.526-3.347-14.933 0-6.694 1.674-13.259 5.15-19.953 3.475-6.694 7.723-11.714 12.744-15.061 5.02-3.347 10.04-5.02 14.804-5.02 3.604 0 7.08.9 10.427 2.831 3.218 1.931 6.179 4.763 8.496 8.754l2.188-9.783h11.2l-9.011 42.094c-1.288 5.921-1.931 9.14-1.931 9.783 0 1.159.386 2.189 1.287 2.961.901.772 1.93 1.159 3.09 1.159 2.317 0 5.149-1.288 8.753-3.733 4.763-3.347 8.625-7.853 11.328-13.517 2.832-5.664 4.248-11.457 4.248-17.507 0-6.952-1.802-13.517-5.406-19.567-3.605-6.05-8.883-10.942-15.963-14.546-7.209-3.733-15.061-5.536-23.557-5.536-9.784 0-18.795 2.317-26.905 6.952-8.11 4.505-14.417 11.2-18.923 19.695-4.377 8.625-6.694 17.765-6.694 27.548 0 10.299 2.317 19.18 6.694 26.518 4.506 7.467 10.942 12.873 19.438 16.478 8.368 3.475 17.765 5.278 28.063 5.278 10.942 0 20.21-1.803 27.548-5.536 7.467-3.604 13.002-8.11 16.735-13.388h11.328c-2.188 4.377-5.793 8.883-10.942 13.388-5.278 4.634-11.457 8.239-18.537 10.813-7.209 2.704-15.833 3.991-26.003 3.991-9.269 0-17.893-1.158-25.746-3.476-7.852-2.445-14.546-6.05-20.082-10.813-5.535-4.763-9.654-10.298-12.486-16.606-3.476-7.852-5.278-16.477-5.278-25.617 0-10.17 2.06-19.953 6.308-29.221 5.149-11.329 12.358-20.082 21.755-26.132 9.397-6.05 20.854-9.011 34.242-9.011 10.427 0 19.695 2.188 28.063 6.436 8.238 4.248 14.803 10.556 19.566 18.923 3.991 7.338 6.05 15.19 6.05 23.686 0 12.1-4.247 22.914-12.872 32.311-7.595 8.496-15.963 12.744-24.974 12.744-2.832 0-5.149-.386-6.951-1.287-1.802-.9-3.09-2.188-3.99-3.862-.516-1.03-.902-2.832-1.16-5.406zm-30.38-16.993c0 5.793 1.287 10.17 3.99 13.388 2.704 3.218 5.922 4.763 9.398 4.763 2.317 0 4.763-.643 7.466-2.06 2.574-1.415 5.02-3.475 7.466-6.307 2.317-2.703 4.248-6.18 5.793-10.556 1.416-4.248 2.188-8.496 2.188-12.744 0-5.664-1.416-10.17-4.248-13.26-2.832-3.089-6.179-4.762-10.298-4.762-2.703 0-5.15.772-7.595 2.06-2.317 1.416-4.634 3.604-6.823 6.565-2.317 3.09-3.99 6.694-5.406 11.07-1.288 4.248-1.931 8.239-1.931 11.843zm94.504 32.827l10.941 1.673c.515 3.347 1.803 5.793 3.862 7.337 2.832 2.189 6.694 3.219 11.457 3.219 5.278 0 9.269-1.03 12.23-3.219 2.832-2.06 4.762-5.02 5.792-8.753.515-2.317.773-7.209.773-14.547-5.02 5.793-11.071 8.754-18.537 8.754-9.14 0-16.22-3.347-21.24-9.912-5.021-6.694-7.596-14.547-7.596-23.815 0-6.436 1.159-12.23 3.476-17.636 2.317-5.406 5.664-9.526 10.041-12.487 4.377-2.96 9.526-4.376 15.447-4.376 7.853 0 14.29 3.09 19.439 9.526v-8.11h10.427v57.799c0 10.298-1.03 17.765-3.09 22.013-2.188 4.376-5.535 7.852-10.17 10.298-4.505 2.575-10.17 3.733-16.863 3.733-7.981 0-14.418-1.673-19.31-5.278-4.891-3.604-7.208-9.01-7.08-16.22zm9.397-40.164c0 8.753 1.673 15.19 5.149 19.18 3.476 4.12 7.852 6.05 13.13 6.05 5.15 0 9.526-1.93 13.002-5.92 3.604-3.991 5.278-10.3 5.278-18.924 0-8.11-1.802-14.289-5.407-18.408-3.604-4.12-7.981-6.308-13.13-6.308-5.02 0-9.269 2.06-12.744 6.18-3.605 4.118-5.278 10.169-5.278 18.15zm64.255 34.628v-66.81h10.17v9.397c2.06-3.218 4.763-5.922 8.238-7.853 3.476-2.06 7.466-2.96 11.972-2.96 4.892 0 9.011 1.03 12.1 3.09 3.219 2.059 5.407 4.89 6.694 8.624 5.278-7.852 12.23-11.714 20.597-11.714 6.694 0 11.714 1.802 15.319 5.406 3.604 3.733 5.406 9.397 5.406 16.992v45.828h-11.328V51.75c0-4.506-.386-7.724-1.03-9.784-.772-1.93-2.06-3.604-3.99-4.763-1.931-1.158-4.248-1.802-6.823-1.802-4.763 0-8.625 1.545-11.714 4.634-3.09 3.219-4.634 8.11-4.634 15.062v38.747h-11.329V50.462c0-5.02-.9-8.753-2.703-11.328-1.93-2.446-4.892-3.733-9.14-3.733-3.218 0-6.05.772-8.753 2.446-2.703 1.673-4.763 4.12-5.922 7.466-1.158 3.218-1.802 7.853-1.802 13.903v34.628h-11.328zm150.744-8.239c-4.12 3.605-8.239 6.05-12.1 7.595-3.862 1.416-7.982 2.189-12.487 2.189-7.338 0-12.873-1.802-16.864-5.407-3.99-3.604-5.921-8.11-5.921-13.774 0-3.218.772-6.179 2.188-8.882 1.545-2.703 3.476-4.892 5.922-6.565 2.446-1.674 5.149-2.832 8.11-3.733 2.188-.515 5.535-1.16 10.04-1.674 9.14-1.03 15.834-2.317 20.21-3.862v-2.96c0-4.635-1.029-7.853-3.089-9.784-2.96-2.575-7.208-3.862-13.001-3.862-5.278 0-9.14 1.03-11.715 2.832-2.574 1.931-4.376 5.15-5.664 9.912l-11.07-1.544c1.03-4.635 2.703-8.497 5.02-11.457 2.317-2.832 5.664-5.15 9.912-6.694 4.377-1.545 9.526-2.317 15.19-2.317s10.299.643 13.903 1.93c3.604 1.417 6.179 3.09 7.852 5.15 1.674 1.93 2.833 4.505 3.476 7.595.386 1.93.644 5.406.644 10.556v15.06c0 10.428.257 17.122.643 19.954.515 2.703 1.545 5.406 2.961 7.981h-11.843c-1.158-2.317-1.93-5.15-2.317-8.239zm-.901-25.23c-4.12 1.673-10.298 3.089-18.537 4.248-4.634.643-7.852 1.416-9.783 2.317-1.931.772-3.476 2.06-4.506 3.604-1.03 1.674-1.545 3.476-1.545 5.407 0 2.96 1.159 5.535 3.347 7.466 2.317 2.06 5.664 3.09 10.041 3.09 4.377 0 8.239-1.03 11.714-2.833 3.347-1.93 5.793-4.505 7.467-7.852 1.158-2.575 1.802-6.308 1.802-11.328v-4.12zm28.983-45.699V1.674h11.329v13.002h-11.329zm0 79.168v-66.81h11.329v66.81h-11.329zm28.342-92.17h11.328v92.17h-11.328zm32.075 79.297h12.872v12.873h-12.872zm76.058-11.586l11.199 1.417c-1.287 7.723-4.377 13.645-9.397 18.022-5.02 4.376-11.071 6.565-18.409 6.565-9.14 0-16.477-2.961-22.012-9.011-5.536-5.922-8.368-14.547-8.368-25.617 0-7.21 1.159-13.517 3.605-18.924 2.317-5.406 6.05-9.525 10.942-12.229 4.892-2.703 10.17-3.99 15.833-3.99 7.338 0 13.26 1.802 17.894 5.406 4.505 3.733 7.466 8.883 8.753 15.705l-10.942 1.674c-1.03-4.506-2.96-7.853-5.535-10.17-2.703-2.188-5.921-3.347-9.655-3.347-5.664 0-10.298 2.06-13.902 6.18-3.605 3.99-5.407 10.555-5.407 19.308 0 9.011 1.802 15.577 5.15 19.567 3.475 4.12 7.98 6.05 13.516 6.05 4.377 0 8.11-1.287 11.07-3.99 2.961-2.703 4.892-6.951 5.665-12.616zm16.606-8.882c0-12.358 3.475-21.498 10.298-27.548 5.793-4.892 12.744-7.337 20.983-7.337 9.268 0 16.735 2.96 22.527 9.01 5.793 6.05 8.754 14.29 8.754 24.845 0 8.625-1.287 15.448-3.862 20.34-2.574 4.891-6.308 8.753-11.2 11.456-5.02 2.704-10.298 4.12-16.22 4.12-9.268 0-16.863-3.09-22.655-9.011-5.664-6.05-8.625-14.675-8.625-25.875zm11.714 0c0 8.496 1.802 14.933 5.535 19.18 3.734 4.249 8.368 6.309 14.032 6.309s10.298-2.06 14.031-6.308c3.734-4.377 5.664-10.813 5.664-19.567 0-8.239-1.93-14.546-5.664-18.794-3.733-4.248-8.367-6.437-14.031-6.437s-10.298 2.189-14.032 6.437c-3.733 4.248-5.535 10.555-5.535 19.18zm64.127 33.341v-66.81h10.17v9.397c2.059-3.218 4.762-5.922 8.238-7.853 3.476-2.06 7.466-2.96 11.972-2.96 4.891 0 9.01 1.03 12.1 3.09 3.218 2.059 5.407 4.89 6.694 8.624 5.278-7.852 12.23-11.714 20.597-11.714 6.694 0 11.714 1.802 15.318 5.406 3.605 3.733 5.407 9.397 5.407 16.992v45.828h-11.328V51.75c0-4.506-.386-7.724-1.03-9.784-.772-1.93-2.06-3.604-3.99-4.763-1.931-1.158-4.249-1.802-6.823-1.802-4.763 0-8.625 1.545-11.714 4.634-3.09 3.219-4.635 8.11-4.635 15.062v38.747h-11.328V50.462c0-5.02-.901-8.753-2.703-11.328-1.931-2.446-4.892-3.733-9.14-3.733-3.218 0-6.05.772-8.754 2.446-2.703 1.673-4.762 4.12-5.921 7.466-1.159 3.218-1.802 7.853-1.802 13.903v34.628h-11.328z" fill-rule="nonzero"/></svg>