<!DOCTYPE svg PUBLIC "-//W3C//DTD SVG 20010904//EN" "http://www.w3.org/TR/2001/REC-SVG-20010904/DTD/svg10.dtd">
<svg version="1.0" xmlns="http://www.w3.org/2000/svg" width="400px" height="400px" viewBox="0 0 4000 4000" preserveAspectRatio="xMidYMid meet">
<g id="layer101" fill="#ffffff" stroke="none">
 <path d="M1760 3969 c-352 -45 -684 -180 -963 -391 -107 -81 -307 -281 -385 -385 -266 -354 -402 -760 -402 -1203 0 -443 136 -852 402 -1203 79 -105 280 -306 385 -385 351 -266 760 -402 1203 -402 443 0 849 136 1203 402 104 78 304 278 385 385 265 351 402 760 402 1203 0 443 -136 850 -402 1203 -79 105 -280 306 -385 385 -285 215 -612 347 -973 391 -97 13 -374 12 -470 0z m1730 -1934 l0 -885 -77 53 c-43 30 -376 257 -740 506 -614 418 -666 451 -705 451 -26 0 -49 -7 -62 -18 -19 -17 -1373 -977 -1403 -996 -10 -6 -13 174 -13 883 l0 891 1500 0 1500 0 0 -885z m-824 -492 l686 -468 -676 -3 c-372 -1 -981 -1 -1353 0 l-677 3 660 467 c362 257 663 468 667 468 4 0 316 -210 693 -467z"/>
 </g>

</svg>